<?xml version="1.0" encoding="utf-8"?>
<!-- Generator: Adobe Illustrator 16.0.0, SVG Export Plug-In . SVG Version: 6.00 Build 0)  -->
<!DOCTYPE svg PUBLIC "-//W3C//DTD SVG 1.1//EN" "http://www.w3.org/Graphics/SVG/1.1/DTD/svg11.dtd" [
	<!ENTITY ns_flows "http://ns.adobe.com/Flows/1.0/">
	<!ENTITY ns_extend "http://ns.adobe.com/Extensibility/1.0/">
	<!ENTITY ns_ai "http://ns.adobe.com/AdobeIllustrator/10.0/">
	<!ENTITY ns_graphs "http://ns.adobe.com/Graphs/1.0/">
]>
<svg version="1.1"
	 id="Layer_1" xmlns:x="&ns_extend;" xmlns:i="&ns_ai;" xmlns:graph="&ns_graphs;" xmlns:sketch="http://www.bohemiancoding.com/sketch/ns"
	 xmlns="http://www.w3.org/2000/svg" xmlns:xlink="http://www.w3.org/1999/xlink" xmlns:a="http://ns.adobe.com/AdobeSVGViewerExtensions/3.0/"
	 x="0px" y="0px" width="16px" height="14px" viewBox="0 0 16 14" enable-background="new 0 0 16 14" xml:space="preserve">
<title>twitter icn</title>
<desc>Created with Sketch.</desc>
<g>
	<g>
		<defs>
			<path id="SVGID_1_" d="M3.062,1.783C2.943,1.87,2.917,2.036,3.003,2.155l1.724,2.372c0.087,0.118,0.255,0.144,0.372,0.059
				l0.634-0.461c0.119-0.086,0.146-0.253,0.06-0.371L4.068,1.381C3.981,1.263,3.813,1.238,3.696,1.322L3.062,1.783z M0.938,5.105
				C0.893,5.246,0.97,5.396,1.108,5.441l2.788,0.906c0.141,0.045,0.291-0.034,0.336-0.172l0.242-0.745
				c0.045-0.14-0.031-0.29-0.171-0.335L1.516,4.189C1.376,4.144,1.225,4.223,1.18,4.36L0.938,5.105z M1.18,9.036
				c0.046,0.141,0.196,0.217,0.336,0.172l2.788-0.906c0.14-0.046,0.216-0.197,0.171-0.336L4.232,7.221
				c-0.046-0.14-0.195-0.217-0.336-0.17L1.108,7.956c-0.14,0.045-0.215,0.197-0.17,0.335L1.18,9.036z M3.696,12.074
				c0.119,0.087,0.286,0.06,0.372-0.059l1.724-2.372c0.086-0.118,0.058-0.286-0.06-0.372L5.099,8.811
				C4.979,8.725,4.813,8.752,4.727,8.87l-1.724,2.372c-0.086,0.118-0.058,0.286,0.06,0.371L3.696,12.074z M7.526,13.059
				c0.147,0,0.266-0.12,0.266-0.266V9.86c0-0.146-0.121-0.266-0.266-0.266H6.742c-0.147,0-0.267,0.119-0.267,0.266v2.933
				c0,0.146,0.122,0.266,0.267,0.266H7.526z M13.087,4.36c-0.045-0.14-0.195-0.217-0.334-0.171L9.964,5.096
				c-0.139,0.045-0.215,0.197-0.17,0.335l0.242,0.745c0.045,0.141,0.195,0.217,0.334,0.172l2.791-0.906
				c0.139-0.045,0.215-0.198,0.168-0.336L13.087,4.36z M10.571,1.322c-0.119-0.086-0.285-0.06-0.371,0.059L8.477,3.754
				C8.39,3.872,8.419,4.04,8.535,4.125l0.636,0.461c0.117,0.086,0.283,0.06,0.371-0.059l1.723-2.372
				c0.086-0.119,0.059-0.287-0.059-0.372L10.571,1.322z M6.742,0.338c-0.147,0-0.267,0.12-0.267,0.267v2.932
				c0,0.147,0.122,0.267,0.267,0.267h0.784c0.147,0,0.266-0.119,0.266-0.267V0.604c0-0.146-0.121-0.267-0.266-0.267H6.742z"/>
		</defs>
		<use xlink:href="#SVGID_1_"  overflow="visible" fill-rule="evenodd" clip-rule="evenodd" fill="#FFFFFF"/>
		<clipPath id="SVGID_2_">
			<use xlink:href="#SVGID_1_"  overflow="visible"/>
		</clipPath>
		
			<rect x="-0.413" y="-1" clip-path="url(#SVGID_2_)" fill-rule="evenodd" clip-rule="evenodd" fill="#FFFFFF" width="15.094" height="15.396"/>
	</g>
	<g>
		<defs>
			<path id="SVGID_3_" d="M5.654,6.289C5.487,6.487,5.512,6.783,5.715,6.953l3.849,3.229l3.85,3.229
				c0.199,0.168,0.498,0.144,0.664-0.056l0.889-1.058c0.166-0.199,0.141-0.494-0.061-0.663L7.206,5.175
				C7.005,5.007,6.709,5.032,6.542,5.23L5.654,6.289z"/>
		</defs>
		<use xlink:href="#SVGID_3_"  overflow="visible" fill-rule="evenodd" clip-rule="evenodd" fill="#FFFFFF"/>
		<clipPath id="SVGID_4_">
			<use xlink:href="#SVGID_3_"  overflow="visible"/>
		</clipPath>
		<g clip-path="url(#SVGID_4_)" enable-background="new    ">
			<g>
				<defs>
					<rect id="SVGID_5_" x="5.305" y="4.888" width="9.901" height="8.831"/>
				</defs>
				<use xlink:href="#SVGID_5_"  overflow="visible" fill="#FFFFFF"/>
				<clipPath id="SVGID_6_">
					<use xlink:href="#SVGID_5_"  overflow="visible"/>
				</clipPath>
				<g clip-path="url(#SVGID_6_)">
					<defs>
						<rect id="SVGID_7_" x="5.305" y="4.888" width="9.901" height="8.831"/>
					</defs>
					<use xlink:href="#SVGID_7_"  overflow="visible" fill="#FFFFFF"/>
					<clipPath id="SVGID_8_">
						<use xlink:href="#SVGID_7_"  overflow="visible"/>
					</clipPath>
					
						<rect x="7.812" y="2.458" transform="matrix(-0.6428 0.766 -0.766 -0.6428 24.0558 7.3704)" clip-path="url(#SVGID_8_)" fill-rule="evenodd" clip-rule="evenodd" fill="#FFFFFF" width="4.995" height="13.671"/>
				</g>
			</g>
		</g>
	</g>
</g>
</svg>
